<svg width="17" height="17" viewBox="0 0 17 17" fill="none" xmlns="http://www.w3.org/2000/svg">
<path d="M15.2257 16.3867C15.4393 16.6061 15.7903 16.6109 16.0097 16.3973C16.2291 16.1838 16.2339 15.8328 16.0204 15.6133L15.2257 16.3867ZM12.5678 12.0654C12.3543 11.846 12.0032 11.8412 11.7838 12.0548C11.5644 12.2683 11.5596 12.6193 11.7731 12.8388L12.5678 12.0654ZM1 7.71053H0.445584H1ZM7.54189 1V0.445584V1ZM16.0204 15.6133L12.5678 12.0654L11.7731 12.8388L15.2257 16.3867L16.0204 15.6133ZM13.5294 7.71053C13.5294 9.34772 12.8952 10.9151 11.7707 12.0686L12.5647 12.8426C13.8939 11.4791 14.6382 9.63282 14.6382 7.71053H13.5294ZM11.7707 12.0686C10.6467 13.2216 9.12524 13.8666 7.54189 13.8666V14.9755C9.42856 14.9755 11.235 14.2065 12.5647 12.8426L11.7707 12.0686ZM7.54189 13.8666C5.95853 13.8666 4.43708 13.2216 3.31306 12.0686L2.51909 12.8426C3.84875 14.2065 5.65521 14.9755 7.54189 14.9755V13.8666ZM3.31306 12.0686C2.18858 10.9151 1.55442 9.34772 1.55442 7.71053H0.445584C0.445584 9.63282 1.18989 11.4791 2.51909 12.8426L3.31306 12.0686ZM1.55442 7.71053C1.55442 6.07334 2.18858 4.50595 3.31306 3.35248L2.51909 2.57846C1.18989 3.94192 0.445584 5.78823 0.445584 7.71053H1.55442ZM3.31306 3.35248C4.43708 2.19948 5.95853 1.55442 7.54189 1.55442V0.445584C5.65521 0.445584 3.84875 1.21452 2.51909 2.57846L3.31306 3.35248ZM7.54189 1.55442C9.12524 1.55442 10.6467 2.19948 11.7707 3.35248L12.5647 2.57846C11.235 1.21452 9.42856 0.445584 7.54189 0.445584L7.54189 1.55442ZM11.7707 3.35248C12.8952 4.50595 13.5294 6.07334 13.5294 7.71053H14.6382C14.6382 5.78823 13.8939 3.94192 12.5647 2.57846L11.7707 3.35248Z" fill="#A37C7C"/>
</svg>
