<svg width="16" height="15" viewBox="0 0 16 15" fill="none" xmlns="http://www.w3.org/2000/svg">
<path d="M3.3125 13.125C3.3125 13.125 2.375 13.125 2.375 12.1875C2.375 11.25 3.3125 8.4375 8 8.4375C12.6875 8.4375 13.625 11.25 13.625 12.1875C13.625 13.125 12.6875 13.125 12.6875 13.125H3.3125ZM8 7.5C8.74592 7.5 9.46129 7.20368 9.98874 6.67624C10.5162 6.14879 10.8125 5.43342 10.8125 4.6875C10.8125 3.94158 10.5162 3.22621 9.98874 2.69876C9.46129 2.17132 8.74592 1.875 8 1.875C7.25408 1.875 6.53871 2.17132 6.01126 2.69876C5.48382 3.22621 5.1875 3.94158 5.1875 4.6875C5.1875 5.43342 5.48382 6.14879 6.01126 6.67624C6.53871 7.20368 7.25408 7.5 8 7.5V7.5Z" fill="#976464"/>
</svg>
