<svg width="15" height="15" viewBox="0 0 15 15" fill="none" xmlns="http://www.w3.org/2000/svg">
<path d="M7.08127 2.55513L5.2142 5.66666H9.7858L7.918 2.55513L8.54867 2.17819L10.6409 5.66666H12.4845C12.769 5.66666 13 5.89766 13 6.18219V6.50413C13 8.66288 12.4974 10.792 11.5319 12.7228C11.4902 12.8061 11.4261 12.8762 11.3468 12.9252C11.2676 12.9741 11.1762 13 11.0831 13H3.91693C3.8237 12.9999 3.73234 12.9738 3.65308 12.9247C3.57382 12.8756 3.50978 12.8055 3.46813 12.7221C2.50263 10.7913 1.99998 8.66215 2 6.50339L2 6.18219C2 5.89766 2.231 5.66666 2.51553 5.66666H4.35913L6.45133 2.17819L7.08053 2.55513H7.08127Z" fill="#976464"/>
</svg>
